<?xml version="1.0" standalone="no"?>
<!DOCTYPE svg PUBLIC "-//W3C//DTD SVG 20010904//EN"
 "http://www.w3.org/TR/2001/REC-SVG-20010904/DTD/svg10.dtd">
<svg version="1.0" xmlns="http://www.w3.org/2000/svg"
 width="1042.000000pt" height="1042.000000pt" viewBox="0 0 1042.000000 1042.000000"
 preserveAspectRatio="xMidYMid meet">
<metadata>
Created by potrace 1.14, written by Peter Selinger 2001-2017
</metadata>
<g transform="translate(0.000000,1042.000000) scale(0.100000,-0.100000)"
fill="#000000" stroke="none">
<path d="M5145 9954 c-44 -23 -66 -45 -82 -83 -22 -52 -22 -1795 0 -1837 49
-93 164 -124 249 -67 83 55 78 -15 78 985 0 958 2 920 -50 969 -50 48 -138 63
-195 33z"/>
<path d="M2983 9271 c-102 -25 -158 -144 -112 -236 8 -17 82 -121 164 -230 81
-110 218 -294 304 -410 86 -115 192 -258 236 -317 44 -59 127 -171 184 -248
57 -78 117 -150 132 -161 60 -43 148 -37 206 14 60 52 76 114 49 187 -10 27
-837 1154 -977 1332 -47 60 -117 86 -186 69z"/>
<path d="M7323 9265 c-50 -26 -28 2 -449 -565 -104 -140 -200 -271 -214 -290
-13 -19 -27 -37 -30 -40 -4 -3 -51 -66 -105 -140 -54 -74 -132 -179 -173 -234
-83 -110 -103 -159 -90 -223 12 -56 74 -119 128 -128 50 -8 105 1 136 23 13 9
86 100 162 202 75 102 187 253 249 335 131 177 121 163 352 475 100 135 189
254 197 264 9 10 29 39 45 64 74 117 1 263 -134 267 -29 1 -62 -4 -74 -10z"/>
<path d="M5177 7324 c-1 -1 -49 -5 -107 -9 -107 -6 -132 -9 -185 -19 -16 -3
-46 -8 -65 -11 -153 -26 -367 -98 -525 -177 -427 -214 -728 -552 -869 -978
-57 -175 -71 -272 -71 -500 0 -216 11 -349 42 -500 8 -41 16 -82 18 -90 15
-74 63 -221 129 -387 61 -156 110 -269 205 -476 23 -49 41 -90 41 -92 0 -2 20
-45 44 -97 24 -51 55 -118 69 -148 108 -237 151 -329 196 -425 29 -60 59 -135
67 -165 18 -68 52 -267 60 -346 3 -33 7 -65 10 -72 2 -7 7 -50 10 -95 16 -228
65 -355 182 -472 54 -54 145 -106 217 -124 63 -16 1182 -13 1242 3 179 48 328
214 367 411 8 39 17 108 20 155 3 47 7 94 10 105 2 11 7 45 10 75 4 30 8 66
11 80 2 14 6 41 9 60 12 87 53 268 66 285 4 6 31 62 60 125 29 63 70 153 92
200 238 510 422 934 495 1140 100 281 131 468 137 815 4 167 1 219 -16 315
-38 218 -124 435 -247 615 -79 118 -108 153 -216 258 -188 185 -408 322 -667
416 -80 30 -250 76 -308 85 -14 3 -45 8 -70 11 -25 4 -54 9 -64 11 -46 9 -392
24 -399 18z m343 -358 c452 -55 859 -287 1088 -619 28 -42 52 -79 52 -83 0 -3
8 -18 18 -32 35 -51 101 -224 118 -306 2 -12 6 -32 9 -46 12 -58 19 -151 19
-240 0 -90 -11 -280 -19 -318 -1 -9 -6 -39 -9 -67 -29 -219 -153 -553 -414
-1115 -16 -36 -58 -126 -92 -200 -34 -74 -103 -224 -154 -335 -84 -181 -114
-260 -131 -350 -3 -16 -13 -68 -21 -115 -9 -47 -18 -87 -21 -90 -6 -6 -1404
-7 -1408 0 -2 3 -6 28 -9 55 -4 28 -11 66 -16 85 -5 19 -11 53 -15 75 -11 73
-45 172 -96 282 -28 59 -89 189 -134 288 -46 99 -98 214 -118 255 -349 750
-435 999 -464 1348 -9 114 -10 281 -1 358 51 449 369 845 839 1046 82 36 257
90 329 102 19 3 46 8 60 11 14 3 57 8 95 11 39 4 71 8 73 9 6 5 370 -3 422 -9z
m381 -4266 c25 0 26 -2 22 -42 -5 -53 -49 -135 -86 -162 -28 -20 -38 -21 -565
-22 -295 0 -548 4 -561 8 -46 16 -86 79 -107 165 -6 28 -11 53 -9 55 3 2 1164
1 1306 -2z"/>
<path d="M8530 7322 c-14 -2 -203 -71 -420 -154 -736 -279 -695 -261 -724
-331 -42 -100 10 -206 116 -235 55 -15 50 -17 563 181 72 27 157 60 190 72
222 83 364 139 392 156 86 53 93 193 14 270 -28 26 -92 47 -131 41z"/>
<path d="M1792 7303 c-69 -34 -108 -120 -88 -197 13 -53 69 -107 136 -130 30
-11 66 -24 80 -29 14 -6 27 -11 30 -11 3 -1 30 -11 60 -23 30 -12 114 -44 185
-71 72 -27 139 -53 150 -57 11 -4 25 -9 30 -11 6 -1 75 -28 155 -59 336 -132
356 -136 436 -90 99 57 105 209 12 278 -18 13 -179 79 -358 147 -179 68 -412
156 -519 196 -206 79 -249 87 -309 57z"/>
<path d="M1765 5220 c-139 -69 -116 -278 35 -317 19 -5 213 -9 430 -8 427 1
425 1 477 57 74 79 50 214 -46 265 -44 23 -45 23 -450 23 -386 0 -408 -1 -446
-20z"/>
<path d="M7785 5233 c-31 -8 -84 -51 -100 -84 -48 -91 1 -212 98 -245 21 -7
175 -10 437 -9 l406 1 42 29 c109 78 98 242 -21 296 -39 17 -69 18 -442 18
-220 -1 -409 -4 -420 -6z"/>
<path d="M4676 2052 c-37 -8 -95 -54 -112 -90 -21 -45 -21 -119 0 -160 9 -17
33 -44 53 -59 l36 -28 607 0 607 0 36 28 c75 57 93 156 45 233 -51 81 -28 78
-678 79 -316 0 -584 -1 -594 -3z"/>
<path d="M4662 1625 c-106 -37 -149 -163 -87 -256 52 -80 32 -78 695 -76 655
2 625 -1 675 75 55 84 30 191 -58 246 -31 19 -49 20 -614 21 -371 0 -593 -3
-611 -10z"/>
<path d="M4662 1205 c-73 -26 -114 -84 -114 -160 0 -43 5 -64 26 -95 52 -79
17 -75 692 -75 l601 0 36 28 c44 33 66 73 71 124 6 72 -31 139 -91 169 -35 17
-77 18 -615 19 -366 0 -588 -3 -606 -10z"/>
<path d="M4917 789 c-89 -24 -143 -123 -117 -216 13 -43 57 -92 101 -110 16
-7 141 -11 350 -11 317 -1 326 0 364 21 72 40 106 119 85 196 -11 43 -58 96
-99 113 -28 12 -643 18 -684 7z"/>
</g>
</svg>
